# xmcd CD database file
#
# Track frame offsets:
#	150
#	28504
#	43959
#	78411
#	118926
#	156203
#	184197
#	198387
#	209363
#
# Disc length: 3090 seconds
#
# Revision: 0
# Processed by: cddbd v1.5.2PL0 Copyright (c) Steve Scherf et al.
# Submitted via: CDex 1.70beta2
#
DISCID=7d0c1009
DTITLE=Dizzy Gillespie and Charlie Christian - Bebop Story The Early Years Vol. 3 1941 CD 003
DYEAR=2008
DGENRE=Jazz
TTITLE0=Stardust
TTITLE1=Stardust
TTITLE2=Kerouac
TTITLE3=Swing To Bop
TTITLE4=Stompin' At The Savoy
TTITLE5=Up On Teddy's Hill
TTITLE6=Down On Teddy's Hill
TTITLE7=Guy's Go To Go (I Got Rhythm)
TTITLE8=Lips Flips (aka Stompin' At The Savoy)
EXTD=YEAR: 2008
EXTT0=
EXTT1=
EXTT2=
EXTT3=
EXTT4=
EXTT5=
EXTT6=
EXTT7=
EXTT8=
PLAYORDER=
